<?xml version="1.0" encoding="UTF-8"?><svg id="a" xmlns="http://www.w3.org/2000/svg" viewBox="0 0 188.55 143.47"><defs><style>.b{fill:#221f20;font-family:BelyDisplay-Regular, Bely Display;font-size:25px;}.c{fill:none;stroke:#221f20;stroke-miterlimit:10;stroke-width:2px;}.d{letter-spacing:0em;}.e{letter-spacing:0em;}</style></defs><g><path class="c" d="M74.55,85.78c.77-5.08,3.33-10.76,6.82-14.53,.21-.23,.46-.41,.71-.59,4.08-2.91,2.57,1.4,2.48,2.95s-.43,3.48,.87,4.35c1.18,.79,2.86-.11,3.48-1.38s.52-2.76,.57-4.17c.26-6.64,4.52-12.96,10.58-15.68,1-.45,3.12-1.49,4.2-1.3,2.57,.46,2.79,1.42,2.48,3.9-.22,1.79-.94,4.35-1.57,6.04l-14.12,38.3c-.87,2.37-1.75,4.75-3.01,6.94-.37,.65-1.03,1.38-1.73,1.12-.37-.14-.59-.53-.78-.88-3.93-7.57-7.06-15.31-10.28-23.24s-4.82-15.17-7.9-22.78c-.85-2.11-1.87-4.15-2.56-6.32-2.04-6.33-1.18-13.47,2.06-19.28,.65-1.17,1.4-2.3,2.4-3.19,1.87-1.68,4.38-2.37,6.66-3.42,3.56-1.64,6.61-4.2,9.55-6.8,1.64-1.45,3.3-2.96,4.39-4.85,1.57-2.72,1.81-5.93,1.76-9.01-.06-3.66-1.64-5.57-3.7-8.56,.14,4.48-3.7,8.12-7.39,10.68s-7.9,4.58-10.62,8.15c-2.78,3.66-2.89,10.18-1.36,14.51"/><path class="c" d="M90.12,6.67s19.16,20.57,12.31,32.04c-6.85,11.47-29.48,14-33.62,29.94"/></g><text class="b" transform="translate(0 136.52)"><tspan x="0" y="0">Milk a</tspan><tspan class="d" x="79.82" y="0">n</tspan><tspan x="96" y="0">d Su</tspan><tspan class="e" x="148.67" y="0">g</tspan><tspan x="162.82" y="0">ar</tspan></text></svg>