<?xml version="1.0" encoding="UTF-8"?>
<svg id="Layer_1" data-name="Layer 1" xmlns="http://www.w3.org/2000/svg" viewBox="0 0 235.52 43.99">
  <defs>
    <style>
      .cls-1 {
        fill: #3d6b9c;
      }
    </style>
  </defs>
  <path class="cls-1" d="m1.33,18.93C1.33,13.48.93,8.38.18,3.59-.1,1.77,1.06.1,2.6.1h33.4c12.69,0,20.91,4.55,20.91,12.37,0,6.66-6.38,10.87-15.45,10.87-1.31,0-2.54-.14-3.69-.14-.77,0-1.23.41-1.23.95,0,2.11,3.54,2.85,6.3,2.85,5.46,0,10.35-5.03,13.92-4.28l.26.22c.92,2.11,1.43,4.33,1.43,6.64,0,7.07-6.15,12.64-14.76,12.64-8.07,0-12.69-2.72-14.61-11.96-.38-1.77-1.15-2.58-2.23-2.58-.92,0-1.46.68-1.46,1.7,0,1.13.12,2.66.33,4.45.45,3.71-1.96,7.04-5.09,7.04H2.47c-1.5,0-2.67-1.6-2.44-3.38.85-6.56,1.3-12.77,1.3-18.57Zm27.37,1.83c2.38,0,3.84-1.97,3.84-4.55,0-3.13-1.31-5.78-3.69-5.78s-3.77,2.65-3.77,5.78c0,2.58,1.15,4.55,3.61,4.55Z"/>
  <path class="cls-1" d="m59.48,15.6C58.45,2.64,61.79-.11,80.01,0c17.1.1,20.86,1.62,20.27,12.41-.69,12.62-7.46,27.19-24.8,31.01-18.59,4.09-14.98-15.1-15.99-27.82Zm20.53,5.27c2.38,0,4.46-2.17,4.46-5.78,0-4.15-2.08-7-4.46-7s-4.54,2.86-4.54,7c0,3.6,2.08,5.78,4.54,5.78Z"/>
  <path class="cls-1" d="m107.59,2.64c8.88,0,25.02,0,33.44,0,2.66,0,5.79,2.33,6.86,5.24,3.04,8.25,9.4,16.55,12.19,26.83,1.17,4.3-1.57,8.71-5.35,8.71-7.64,0-19.84,0-25.62,0-1.7,0-3.02-1.78-2.81-3.8.43-4.22.58-6.99.58-9.18,0-2.51-1.23-4.15-3.38-4.15s-3.38,1.63-3.38,4.15c0,2.19.19,4.97.61,9.19.2,2.02-1.12,3.79-2.82,3.79h-19.05c-3.94,0-6.74-6.03-3.78-9.16,5.28-5.6,8.58-15.09,7.67-25.07-.32-3.49,1.93-6.56,4.86-6.56Zm15.9,17.26c2.38,0,3.38-1.97,3.38-4.55,0-3.13-.85-5.78-3.23-5.78s-3.38,2.65-3.38,5.78c0,2.58.77,4.55,3.23,4.55Z"/>
  <path class="cls-1" d="m151.16,8.68c-1.31-2.67.34-6.04,2.93-6.04h27.5c11.3,0,13.38,6.59,14.07,15.29.15,2.24.54,4.62,2.38,4.62,2,0,2.54-2.38,2.84-4.62,1.38-8.7,3.54-15.29,14.84-15.29h15.07c2.04,0,3.61,2.14,3.34,4.56-1.05,9.48-.65,21.59,1.28,31.22.51,2.55-1.08,5-3.27,5h-19.24c-2.17,0-3.78-2.41-3.29-4.94,1.69-8.72,2.68-18.85-1.36-18.85-3.62,0-3.44,10.79-3.74,19.91-.07,2.17-1.56,3.88-3.37,3.88h-11.14c-1.81,0-3.3-1.71-3.37-3.88-.3-9.12-.12-19.91-3.74-19.91-4.04,0-3.05,10.13-1.36,18.85.49,2.53-1.12,4.94-3.29,4.94h-12.51c-2.21,0-3.86-2.53-3.25-5.07,2.26-9.39-6.84-20.51-11.33-29.67Z"/>
</svg>