<?xml version="1.0" encoding="UTF-8"?><svg id="a" xmlns="http://www.w3.org/2000/svg" viewBox="0 0 159.25 38.69"><defs><style>.b{fill:#6a7f98;}</style></defs><path class="b" d="M3.87,18.11c-.4-.22-.81-.31-1.19-.31-1.42,0-2.43,1.35-2.43,2.72,0,1.04,.59,1.55,1.67,1.55,3.08,0,8.86-4.07,8.86-8.25,0-.9-.23-1.85-.76-2.81l.11-.05c.63,1.01,.9,2.12,.9,3.28,0,6.18-4.84,10.19-7.8,10.19-1.82,0-3.24-1.21-3.24-3.67,0-1.67,1.22-3.12,2.68-3.12,.38,0,.76,.09,1.15,.31l.04,.16Zm14.22-6.73c1.6-2.88,3.67-4.88,4.79-4.88,.49,0,.59,.22,.59,.43,0,.85-1.26,1.82-2.99,3.01-.79,2.3-1.3,5.33-1.3,7.49,0,2.52,.68,4.41,2.75,4.41,1.26,0,2.02-1.03,2.02-1.96,0-.81-.68-1.46-1.44-1.46-.25,0-.54,.07-.77,.23l-.02-.14c.25-.16,.52-.23,.79-.23,1.01,0,1.8,.81,1.8,2.32,0,2.47-2.18,4.2-4.3,4.2s-4.07-1.6-4.07-5.67c0-2.63,.83-5.22,1.94-7.36-1.12,.79-2.25,1.67-3.29,2.65,.11,.86,.18,1.8,.18,2.81,0,3.62-1.21,6.84-3.01,6.84-.65,0-1.24-.67-1.24-2,0-2.97,1.6-5.44,3.67-7.49-1.08-3.62-4.23-5.46-6.93-5.46-1.93,0-3.33,.94-3.33,2.83s1.15,2.68,2.23,2.68c1.17,0,2.41-.97,2.52-2.48h.16c-.09,1.8-1.67,2.65-2.77,2.65-1.21,0-2.3-.95-2.3-2.77,0-3.55,2.2-5.55,4.66-5.55,2.66,0,5.4,2.38,6.14,7.74,1.12-1.04,2.34-1.98,3.51-2.83Zm-3.83,3.37c-2.02,2-3.57,4.39-3.57,7.31,0,1.17,.45,1.84,1.1,1.84,1.6,0,2.81-3.15,2.81-6.57,0-.94-.13-1.8-.34-2.57ZM22.89,6.68c-.86,0-1.66,1.26-2.29,2.99,1.58-1.12,2.72-2,2.72-2.7,0-.16-.11-.29-.43-.29Z"/><path class="b" d="M29.59,22.31c0,.67,.23,.94,.56,.94,.41,0,1.64-.95,1.75-2.61l.16-.02c-.25,1.91-1.35,2.88-2.54,2.88s-2-.76-2-1.96c0-1.71,1.37-5.37,1.37-7.08,0-.49-.2-.65-.54-.65-.43,0-1.13,.38-1.46,.81h-.16c.4-.58,1.37-1.1,2.5-1.1,1.01,0,1.91,.49,1.91,1.8,0,1.58-1.55,5.53-1.55,6.99Zm2.63-11.47c0,.81-.56,1.6-1.4,1.6-.67,0-1.22-.5-1.22-1.3s.5-1.66,1.48-1.66c.68,0,1.15,.67,1.15,1.35Z"/><path class="b" d="M31.36,4c-.74,.38-1.39,1.31-1.39,2.86,0,2.2,1.67,4.86,6.12,5.73,.27-1.22,.45-2.18,.45-2.63,0-.49-.2-.72-.54-.72-.52,0-1.12,.31-1.51,.76l-.09-.09c.43-.56,1.48-1.01,2.48-1.01,.83,0,1.58,.34,1.82,1.19C40.14,2.25,45.35,.14,47.69,.14c2.88,0,4.11,1.31,4.11,3.11,0,3.82-5.56,9.79-12.55,9.79-.31,0-.58,0-.86-.02-.74,3.35-2.25,8.86-2.25,9.54s.23,.72,.56,.72c.59,0,1.58-1.1,1.67-2.48h.16c-.2,1.98-1.48,2.86-2.59,2.86-.97,0-1.93-.36-1.93-1.62,0-.97,1.31-5.94,2.05-9.27-4.57-.88-6.28-3.66-6.28-5.96,0-1.39,.68-3.19,2.34-3.19,.72,0,1.3,.63,1.3,1.37,0,.81-.56,1.6-1.4,1.6-.67,0-1.22-.5-1.22-1.3,0-.47,.2-.99,.58-1.31Zm7.08,8.84c.25,.02,.52,.02,.81,.02,3.33,0,8.66-2.56,8.66-7.47,0-2.05-1.22-3.13-2.77-3.13-2.45,0-5.44,2.75-6.34,8.44,0,.38-.14,1.15-.36,2.14Z"/><path class="b" d="M42.97,10.24c0-.45-.31-.63-.72-.63-.34,0-.81,.25-1.24,.81l-.16-.04c.5-.79,1.49-1.17,2.5-1.17,.86,0,1.85,.38,1.85,1.91,0,.52-.67,3.71-1.31,6.72,1.78-1.06,1.96-3.8,3.89-3.8,1.17,0,2.18,.81,2.18,2.12,0,.65-.45,1.28-1.12,1.28s-.95-.49-.95-1.03c0-.68,.52-1.31,1.08-1.31,.25,0,.52,.14,.74,.49-.27-1.15-1.33-1.39-1.93-1.39-1.85,0-1.87,2.59-3.66,3.62,.49-.25,1.15-.52,1.6-.52,2.43,0,2.18,5.73,3.37,5.73,.23,0,.76-.38,.92-1.42h.14c-.16,1.35-1.24,2.18-2.3,2.18-2.84,0-1.73-5.83-3.56-5.83-.16,0-.31,.07-.45,.16-.16,.7-.32,1.4-.45,2.05-.4,1.82-.5,2.36-.5,2.5,0,.68,.16,.67,.7,1.31h-.16c-.58-.72-.9-.72-1.08-.72s-1.03,.07-1.24,.07c-.32,0-.59-.14-.59-.9,0-.13,.2-1.03,.49-2.27,.86-3.78,1.98-9.06,1.98-9.92Z"/><path class="b" d="M66.19,15.38c.14-.58,.23-1.06,.31-1.39,.4,.2,.68,.32,1.1,.32,.32,0,.59-.04,1.17-.25l.14-.68h.14c-.34,1.75-2.07,8.68-2.07,9.18,0,.45,.11,.63,.52,.63,.54,0,1.48-.99,1.6-2.5h.16c-.2,1.78-1.17,2.88-2.63,2.88-.86,0-1.71-.36-1.82-1.39-.68,.81-1.57,1.31-2.7,1.31-2.21,0-3.11-1.57-3.11-3.46,0-2.86,2-6.45,5.06-6.45,1.08,0,1.8,.59,2.12,1.78Zm-.05,.27c-.31-1.17-.94-1.82-1.8-1.82-1.49,0-2.83,3.37-2.83,6.07,0,1.69,.54,2.95,1.8,2.95,.5,0,.99-.23,1.49-.86-.05-.76,.79-3.93,1.33-6.34Z"/><path class="b" d="M78.57,22.36c0,.59,.31,.79,.63,.79,.41,0,1.42-.7,1.57-2.54h.14c-.16,1.94-1.28,2.92-2.5,2.92-.97,0-1.87-.61-1.87-1.87,0-1.89,1.17-4.72,1.17-6.43,0-.77-.38-1.08-.86-1.08-.65,0-1.49,.58-1.98,1.12v.07c0,.94-1.28,6.45-1.6,7.94-.4-.2-.68-.32-1.1-.32-.32,0-.77,.09-1.17,.23l-.14,.7h-.14c.34-1.75,1.89-8.03,1.89-9.27,0-.38-.23-.65-.56-.65-.52,0-1.08,.38-1.4,.83l-.16-.04c.5-.79,1.51-1.15,2.43-1.15s1.82,.29,1.94,1.46c.72-.81,2.16-1.46,3.38-1.46,1.06,0,1.91,.49,1.91,1.76s-1.57,5.71-1.57,6.99Z"/><path class="b" d="M85.91,3.85c-.74,.38-1.39,1.31-1.39,2.86,0,2.2,1.66,4.86,6.1,5.73,.25-1.15,.45-2.21,.45-2.59,0-.45-.27-.59-.68-.59-.36,0-.92,.31-1.22,.7l-.23-.02c.43-.63,1.51-1.06,2.48-1.06s1.6,.38,1.82,1.19c1.4-7.92,6.66-10.06,9-10.06,2.88,0,4.1,1.31,4.1,3.11,0,3.82-5.56,9.79-12.55,9.79-.29,0-.56,0-.81-.02-.72,3.21-2.27,8.41-2.27,9.76,0,.45,.11,.63,.52,.63,.54,0,1.48-.99,1.6-2.5h.16c-.2,1.78-1.17,2.88-2.63,2.88-.86,0-1.71-.36-1.82-1.39-.68,.81-1.57,1.31-2.7,1.31-2.21,0-3.11-1.57-3.11-3.46,0-2.86,2-6.45,5.06-6.45,1.08,0,1.8,.59,2.12,1.78,.2-.74,.45-1.82,.67-2.84-4.56-.88-6.27-3.64-6.27-5.94,0-1.39,.68-3.19,2.34-3.19,.72,0,1.3,.63,1.3,1.37,0,.81-.56,1.6-1.4,1.6-.67,0-1.22-.5-1.22-1.3,0-.47,.2-.99,.58-1.31Zm3.96,11.88c-.31-1.17-.94-1.82-1.8-1.82-1.49,0-2.83,3.37-2.83,6.07,0,1.69,.54,2.95,1.8,2.95,.5,0,.99-.23,1.49-.86-.05-.76,.79-3.92,1.33-6.34Zm3.15-3.04c.25,.02,.5,.02,.77,.02,3.33,0,8.66-2.56,8.66-7.47,0-2.05-1.22-3.13-2.77-3.13-2.47,0-5.47,2.79-6.36,8.55v.05c0,.41-.13,1.12-.31,1.98Z"/><path class="b" d="M105.26,19.68c-.27-.2-.63-.29-1.13-.29-1.28,0-2.16,1.12-2.16,2.39,0,1.55,1.3,3.37,4.56,3.37s4.45-2.45,4.45-4.63c0-1.93-.56-3.93-.88-5.89-.61,.16-1.3,.25-2.02,.25-2.59,0-3.46-1.44-3.46-2.75,0-1.08,.88-2,1.84-2,.54,0,1.08,.23,1.35,.81l-.02,.13c-.29-.56-.81-.77-1.33-.77-.95,0-1.66,.94-1.66,1.84,0,1.26,.83,2.58,3.28,2.58,.72,0,1.39-.09,2-.25-.11-.72-.18-1.44-.18-2.14,0-3.53,3.04-5.96,4.32-5.96,.76,0,1.33,.56,1.33,1.71,0,1.67-1.03,4.02-3.08,5.47,.34,1.42,.83,3.02,.83,5.24,0,2.86-2.18,6.55-6.7,6.55-3.4,0-4.81-1.85-4.81-3.55,0-1.35,.92-2.56,2.34-2.56,.5,0,.86,.11,1.13,.31v.14Zm7.15-6.32c1.98-1.42,2.97-3.67,2.97-5.29,0-.94-.49-1.53-1.04-1.53-.97,0-2.23,1.28-2.23,4.59,0,.76,.13,1.48,.31,2.23Z"/><path class="b" d="M118.08,14.69c0-.59-.25-.68-.58-.68-.41,0-1.51,.65-1.66,2.48h-.14c.16-1.94,1.37-2.86,2.59-2.86,.97,0,1.87,.52,1.87,1.78,0,1.35-1.26,4.75-1.26,6.46,0,.77,.38,1.08,.86,1.08,.68,0,1.58-.59,2.05-1.15v-.16c0-.94,1.22-6.18,1.55-7.67,.4,.2,.68,.32,1.1,.32,.32,0,.77-.09,1.17-.23l.14-.7h.14c-.34,1.75-1.91,7.89-1.91,9.13,0,.45,.31,.63,.72,.63,.59,0,1.64-.72,1.76-2.48h.16c-.2,1.98-1.24,2.86-2.95,2.86-.9,0-1.75-.5-1.87-1.55-.68,.86-2.2,1.55-3.46,1.55-1.06,0-1.91-.49-1.91-1.76s1.6-5.94,1.6-7.04Z"/><path class="b" d="M135.04,14.69c-.13-.23-.2-.49-.2-.77,0-.77,.54-1.31,1.19-1.31,.72,0,1.1,.54,1.1,.99,0,.31-.22,.76-.67,.76v-.16h.04c.31,0,.47-.31,.47-.59,0-.49-.43-.83-.94-.83-.63,0-1.03,.54-1.03,1.13,0,.52,.25,.9,.45,1.15l-.13,.04c-.56-.5-1.12-.67-1.64-.67-1.91,0-3.21,2.97-3.21,5.55,0,1.84,.67,3.28,2.21,3.28,1.64,0,3.31-2.83,3.44-5.31-.22,.47-.67,.83-1.22,.83-.67,0-1.22-.5-1.22-1.3s.5-1.66,1.48-1.66,1.15,1.03,1.15,1.89c0,2.54-1.87,6.39-4.86,6.39-.68,0-1.71-.18-2.56-1.22-.22-.14-.52-.18-.7-.18-1.01,0-1.58,.74-1.58,1.67,0,2.67,9.52,.76,9.52,7.9,0,3.29-3.46,6.28-7.08,6.28-8.25,0-10.57-7.74-15.39-7.74-4.38,0-4.61,7.72,2.18,7.72,.88,0,1.82-.29,2.45-.83l.04,.13c-.76,.67-1.75,.86-2.48,.86-8.19,0-6.77-11.06,1.26-11.06,6.09,0,9.78,8.3,15.12,8.3,.88,0,3.73-.32,3.73-3.69,0-4-9.52-1.73-9.52-7.89,0-.9,.58-1.84,1.76-1.84,.18,0,.36,.04,.56,.11-.29-.58-.49-1.39-.49-2.12,0-2.83,2.03-6.32,5.13-6.32,.63,0,1.17,.16,1.64,.5Z"/><path class="b" d="M146.2,15.38c.14-.58,.23-1.06,.31-1.39,.4,.2,.68,.32,1.1,.32,.32,0,.59-.04,1.17-.25l.14-.68h.14c-.34,1.75-2.07,8.68-2.07,9.18,0,.45,.11,.63,.52,.63,.54,0,1.48-.99,1.6-2.5h.16c-.2,1.78-1.17,2.88-2.63,2.88-.86,0-1.71-.36-1.82-1.39-.68,.81-1.57,1.31-2.7,1.31-2.21,0-3.11-1.57-3.11-3.46,0-2.86,2-6.45,5.06-6.45,1.08,0,1.8,.59,2.12,1.78Zm-.05,.27c-.31-1.17-.94-1.82-1.8-1.82-1.49,0-2.83,3.37-2.83,6.07,0,1.69,.54,2.95,1.8,2.95,.5,0,.99-.23,1.49-.86-.05-.76,.79-3.93,1.33-6.34Z"/><path class="b" d="M150.42,15.12c.47-.79,1.49-1.24,2.43-1.24,1.03,0,1.96,.54,1.96,1.73v.11c.74-1.1,1.67-1.76,2.48-1.76,1.06,0,1.94,.54,1.94,1.6,0,.81-.56,1.6-1.4,1.6-.67,0-1.22-.5-1.22-1.3,0-1.22,.97-1.51,1.35-1.55-.14-.13-.47-.2-.65-.2-.86,0-1.84,.79-2.56,2.03-.23,1.66-1.21,5.82-1.49,7.13-.4-.2-.68-.32-1.1-.32-.32,0-.77,.09-1.17,.23l-.14,.7h-.14c.34-1.75,1.84-7.67,1.84-8.91,0-.4-.22-.65-.56-.65-.54,0-1.08,.38-1.4,.83l-.16-.04Z"/></svg>